<?xml version="1.0" encoding="iso-8859-1"?>
<!-- Generator: Adobe Illustrator 17.1.0, SVG Export Plug-In . SVG Version: 6.00 Build 0)  -->
<!DOCTYPE svg PUBLIC "-//W3C//DTD SVG 1.1//EN" "http://www.w3.org/Graphics/SVG/1.1/DTD/svg11.dtd">
<svg version="1.1" id="Capa_1" xmlns="http://www.w3.org/2000/svg" xmlns:xlink="http://www.w3.org/1999/xlink" x="0px" y="0px"
	 viewBox="0 0 417.921 417.921" style="enable-background:new 0 0 417.921 417.921;" xml:space="preserve">
<path d="M277.659,191.921c22.368-22.369,22.368-58.766,0-81.135c-10.836-10.836-25.243-16.804-40.568-16.804
	c-15.324,0-29.731,5.968-40.567,16.804c-22.368,22.369-22.368,58.766,0,81.135c11.185,11.185,25.876,16.777,40.567,16.777
	C251.783,208.698,266.474,203.105,277.659,191.921z M237.09,106.982c11.853,0,22.995,4.615,31.375,12.996
	c2.472,2.472,4.578,5.17,6.343,8.021h-75.436c1.766-2.851,3.872-5.55,6.343-8.021C214.096,111.598,225.239,106.982,237.09,106.982z
	 M193.961,141h86.26c0.833,3.494,1.236,7.07,1.213,10.644h-57.792c-3.59,0-6.5,2.91-6.5,6.5s2.91,6.5,6.5,6.5h55.765
	c-2.067,6.62-5.707,12.851-10.941,18.085c-17.298,17.3-45.449,17.301-62.749,0C194.418,171.431,190.503,155.508,193.961,141z
	 M389.254,277.544l-48.446-48.446c-2.539-2.538-6.655-2.538-9.192,0l-3.621,3.621l-20.956-20.956
	c0.276-5.337,0.418-10.439,0.421-15.201l29.002-90.647c2.665-8.544,3.896-17.457,3.66-26.493v0C338.977,35.55,302.421,0,258.545,0
	c-0.121,0-0.247,0-0.368,0.001l-1.053,0.005c-17.821,0.078-34.246,9.443-43.937,25.05c-6.436,10.365-17.55,16.552-29.731,16.552
	s-23.296-6.188-29.731-16.552c-9.69-15.607-26.114-24.972-43.937-25.05l-1.051-0.005C108.614,0,108.493,0,108.369,0
	C64.495,0,27.936,35.553,26.791,79.423c-0.235,9.035,0.996,17.948,3.675,26.537l28.988,90.603
	c0.023,35.459,7.548,89.389,24.163,125.252l37.249,80.404c3.207,9.32,11.734,15.611,21.349,15.7
	c0.071,0.001,0.144,0.001,0.215,0.001c6.014,0,11.67-2.326,15.946-6.563c4.327-4.288,6.711-10.005,6.711-16.097
	c0-0.602-0.084-1.203-0.249-1.782c-7.37-25.876-22.143-98.804-2.248-125.156c4.955-6.564,11.781-9.756,20.866-9.756
	c8.862,0,15.544,3.127,20.427,9.561c19.852,26.156,5.439,99.052-1.788,124.934c-0.159,0.569-0.24,1.159-0.24,1.75
	c0,11.756,9.322,22.088,20.781,23.032c0.638,0.053,1.271,0.078,1.901,0.078c9.637,0,18.219-6.052,21.396-15.262l37.426-80.902
	c12.069-26.09,19.324-61.746,22.388-92.901l13.056,13.055l-3.968,3.968c-2.538,2.539-2.538,6.654,0,9.192l48.446,48.446
	c1.27,1.269,2.934,1.904,4.597,1.904s3.327-0.635,4.596-1.904l16.781-16.78C391.792,284.198,391.792,280.083,389.254,277.544z
	 M189.379,199.065c-12.745-12.744-19.764-29.688-19.764-47.712c0-18.023,7.019-34.967,19.764-47.711
	c12.744-12.744,29.688-19.763,47.711-19.763s34.967,7.019,47.711,19.763c0.001,0,0.001,0,0.001,0
	c12.744,12.744,19.763,29.688,19.763,47.711c0,18.023-7.019,34.968-19.764,47.712c-12.744,12.745-29.688,19.763-47.711,19.763
	S202.123,211.81,189.379,199.065z M42.862,102.044c-2.238-7.179-3.272-14.676-3.074-22.283C40.748,42.883,71.482,13,108.37,13
	c0.102,0,0.208,0,0.31,0.001l1.054,0.005c13.316,0.058,25.633,7.126,32.947,18.907c8.824,14.211,24.067,22.695,40.776,22.695
	s31.952-8.484,40.776-22.695c7.314-11.781,19.631-18.849,32.946-18.907l1.056-0.005c0.104,0,0.206-0.001,0.31-0.001
	c36.884,0,67.62,29.885,68.581,66.761c0,0,0,0,0,0c0.199,7.606-0.835,15.103-3.06,22.237l-9.181,28.698
	c-3.584-13.586-10.691-26.047-20.89-36.247c-15.2-15.2-35.409-23.571-56.904-23.571s-41.704,8.371-56.904,23.571
	c-15.199,15.2-23.57,35.409-23.57,56.904c0,21.496,8.371,41.705,23.57,56.904c0.375,0.375,0.767,0.727,1.148,1.094
	c-17.866-0.122-34.695-1.773-49.638-4.078l-17.034-43.223c-1.316-3.34-5.09-4.979-8.43-3.664c-3.34,1.316-4.98,5.091-3.664,8.431
	l14.119,35.826c-22.669-4.453-39.176-9.869-45.512-12.103L42.862,102.044z M271.56,316.298l-37.575,81.225
	c-0.108,0.234-0.203,0.475-0.282,0.721c-1.392,4.281-5.505,7.015-10,6.643c-4.473-0.368-8.424-4.627-8.815-9.316
	c2.985-11.029,25.981-100.204-0.645-135.296c-7.404-9.759-17.762-14.708-30.786-14.708c-13.258,0-23.771,5.023-31.246,14.929
	c-26.667,35.336-3.209,124.48-0.154,135.546c-0.183,2.302-1.171,4.438-2.83,6.081c-1.845,1.828-4.241,2.811-6.891,2.797
	c-4.091-0.038-7.89-2.964-9.238-7.116c-0.08-0.247-0.175-0.488-0.284-0.724l-37.4-80.73
	c-14.568-31.445-21.777-77.833-22.821-111.577c17.797,5.829,60.006,17.588,110.865,17.588c4.94,0,9.99-0.137,15.037-0.369
	c11.7,6.414,24.883,9.835,38.596,9.835c19.454,0,37.84-6.877,52.427-19.446c0.257,0.411,0.559,0.803,0.916,1.16l3.293,3.292
	C291.545,248.932,284.432,288.473,271.56,316.298z M367.877,289.728l-39.254-39.254l3.963-3.963
	c0.002-0.002,0.003-0.003,0.005-0.005s0.003-0.003,0.005-0.005l3.615-3.615l39.254,39.254L367.877,289.728z"/>
<g>
</g>
<g>
</g>
<g>
</g>
<g>
</g>
<g>
</g>
<g>
</g>
<g>
</g>
<g>
</g>
<g>
</g>
<g>
</g>
<g>
</g>
<g>
</g>
<g>
</g>
<g>
</g>
<g>
</g>
</svg>
