<svg width="46" height="46" viewBox="0 0 46 46" fill="none" xmlns="http://www.w3.org/2000/svg">
<path d="M20.3252 25.4531L21.0014 24.777L23.8351 27.6107L23.1589 28.2869L20.3252 25.4531Z" fill="#132324"/>
<path d="M29.6357 25.4976L29.1572 25.9761C29.1983 26.0821 29.2349 26.1895 29.2671 26.2983C29.3596 26.0184 29.4832 25.7498 29.6357 25.4976Z" fill="#132324"/>
<path d="M19.542 27.6748L20.2824 26.9344L21.6776 28.3297L20.9373 29.0701L19.542 27.6748Z" fill="#132324"/>
<path d="M39.4372 13.6643L34.9533 9.18046C34.92 9.14709 34.8803 9.12061 34.8367 9.10255C34.7931 9.08449 34.7464 9.0752 34.6992 9.0752C34.652 9.0752 34.6053 9.08449 34.5617 9.10255C34.5181 9.12061 34.4785 9.14709 34.4451 9.18046L32.3034 11.3222L33.0011 12.02C33.1022 12.1211 33.159 12.2582 33.159 12.4011C33.159 12.5441 33.1023 12.6812 33.0012 12.7823C32.9001 12.8834 32.763 12.9402 32.62 12.9403C32.477 12.9403 32.3399 12.8835 32.2388 12.7824L31.541 12.0846L30.5527 13.0729L32.3294 14.8496C32.4292 14.951 32.4848 15.0876 32.4842 15.2299C32.4837 15.3721 32.4269 15.5083 32.3264 15.6088C32.2258 15.7094 32.0896 15.7661 31.9474 15.7667C31.8052 15.7673 31.6685 15.7117 31.5671 15.6119L29.7904 13.8353L28.8021 14.8235L29.4998 15.5213C29.6009 15.6224 29.6577 15.7595 29.6577 15.9024C29.6577 16.0454 29.601 16.1825 29.4999 16.2836C29.3988 16.3847 29.2617 16.4415 29.1187 16.4416C28.9757 16.4416 28.8386 16.3848 28.7375 16.2837L28.0397 15.5859L27.0514 16.5742L28.8281 18.3509C28.9279 18.4523 28.9835 18.5889 28.9829 18.7312C28.9824 18.8734 28.9256 19.0096 28.8251 19.1101C28.7245 19.2107 28.5883 19.2674 28.4461 19.268C28.3039 19.2686 28.1672 19.213 28.0658 19.1132L26.2901 17.3355L25.3019 18.3238L25.9996 19.0215C26.0984 19.1231 26.1533 19.2594 26.1523 19.4011C26.1513 19.5428 26.0945 19.6785 25.9943 19.7786C25.8941 19.8788 25.7585 19.9355 25.6168 19.9364C25.4751 19.9374 25.3387 19.8825 25.2372 19.7836L24.5394 19.0858L23.5511 20.0741L25.3286 21.85C25.4297 21.9511 25.4865 22.0882 25.4866 22.2312C25.4866 22.3742 25.4298 22.5113 25.3287 22.6124C25.2276 22.7135 25.0905 22.7703 24.9475 22.7703C24.8045 22.7703 24.6674 22.7136 24.5663 22.6125L22.7896 20.8357L20.9442 22.6811C20.9108 22.7145 20.8843 22.7541 20.8662 22.7977C20.8482 22.8413 20.8389 22.8881 20.8389 22.9353C20.8389 22.9825 20.8482 23.0292 20.8662 23.0728C20.8843 23.1164 20.9108 23.1561 20.9442 23.1894L25.428 27.6732C25.4954 27.7406 25.5868 27.7784 25.6821 27.7784C25.7774 27.7784 25.8688 27.7406 25.9362 27.6732L39.4372 14.1724C39.5045 14.1051 39.5424 14.0137 39.5424 13.9184C39.5424 13.8231 39.5045 13.7317 39.4372 13.6643Z" fill="#132324"/>
<path d="M37.6143 10.3252L39.9445 7.99492L40.6207 8.67108L38.2904 11.0014L37.6143 10.3252Z" fill="#132324"/>
<path d="M27.4254 29.7321C28.189 29.3267 28.5374 28.0057 28.291 26.8433L26.6985 28.4356C26.4288 28.7048 26.0632 28.856 25.682 28.856C25.3009 28.856 24.9353 28.7048 24.6655 28.4356L24.6031 28.3727L23.5457 29.4301C23.4957 29.4802 23.4362 29.5199 23.3708 29.547C23.3054 29.5741 23.2353 29.5881 23.1645 29.5881C23.0937 29.5881 23.0236 29.5741 22.9582 29.547C22.8928 29.5199 22.8334 29.4802 22.7833 29.4301L22.4451 29.092L21.3235 30.2145C21.2735 30.2645 21.214 30.3042 21.1486 30.3313C21.0832 30.3584 21.0131 30.3724 20.9423 30.3724C20.8715 30.3724 20.8014 30.3584 20.736 30.3313C20.6706 30.3042 20.6112 30.2645 20.5611 30.2145L19.8634 29.5167L18.5664 30.8135C18.905 31.2453 18.9122 31.7312 18.8405 32.5835C18.8315 32.687 18.8226 32.7979 18.8136 32.9172C18.6926 34.4985 18.9034 36.5372 19.8468 37.5835C19.8053 37.1415 19.5206 33.4943 21.1998 31.4504C21.326 31.2987 21.4842 31.1767 21.6632 31.0934C21.8421 31.01 22.0373 30.9674 22.2347 30.9685C22.432 30.9696 22.6267 31.0144 22.8047 31.0997C22.9827 31.1851 23.1396 31.3088 23.2641 31.4619C24.9098 33.5155 24.6275 37.1446 24.5865 37.5835C25.5298 36.5371 25.7409 34.4984 25.6197 32.9171C25.6107 32.7984 25.6017 32.688 25.5927 32.5847C25.4647 31.0569 25.5887 30.7069 27.4254 29.7321Z" fill="#132324"/>
<path d="M19.2657 24.9931C19.244 24.9894 19.2222 24.9856 19.2012 24.9828C18.4931 24.889 16.7834 24.8667 16.203 26.6829C15.8143 27.8989 16.1828 29.2951 17.0077 29.7318C17.283 29.8775 17.5191 30.0091 17.7223 30.133L19.1009 28.7541L18.4031 28.0564C18.302 27.9553 18.2452 27.8182 18.2452 27.6752C18.2452 27.5323 18.302 27.3952 18.4031 27.2941L19.5248 26.1724L19.1866 25.8342C19.0855 25.7331 19.0287 25.596 19.0287 25.453C19.0287 25.3101 19.0855 25.173 19.1866 25.0719L19.2657 24.9931Z" fill="#132324"/>
<path d="M41.4973 29.7323C42.3722 29.2679 42.7192 27.6153 42.2106 26.3318C41.9186 25.5951 41.1139 24.4439 39.005 25.0187C38.5381 25.1433 38.0954 25.345 37.695 25.6156C37.6567 25.6393 37.6178 25.6634 37.5782 25.6879C37.8457 25.7545 38.1242 25.7645 38.3958 25.7172C38.4655 25.7029 38.5374 25.7026 38.6073 25.7162C38.6772 25.7299 38.7437 25.7572 38.803 25.7967C38.8622 25.8362 38.9131 25.8871 38.9526 25.9463C38.992 26.0056 39.0194 26.0721 39.0331 26.142C39.0467 26.2118 39.0464 26.2837 39.0321 26.3535C39.0178 26.4233 38.9898 26.4895 38.9498 26.5484C38.9097 26.6073 38.8584 26.6576 38.7988 26.6966C38.7392 26.7355 38.6724 26.7623 38.6024 26.7753C37.6278 26.966 36.6701 26.5674 36.0346 26.2513C35.9027 26.1857 35.7326 26.0875 35.5356 25.9738C34.955 25.6385 33.9834 25.0773 33.2735 24.9832C32.5655 24.889 30.8557 24.867 30.2753 26.6831C29.8866 27.8991 30.2551 29.2953 31.08 29.732C32.9175 30.7048 33.0415 31.0546 32.9128 32.5836C32.9038 32.6871 32.8948 32.798 32.8859 32.9174C32.7649 34.4986 32.9757 36.5374 33.9191 37.5837C33.8775 37.1417 33.5929 33.4945 35.272 31.4507C35.3982 31.2989 35.5564 31.1769 35.7354 31.0936C35.9143 31.0102 36.1095 30.9676 36.3069 30.9687C36.5043 30.9698 36.699 31.0146 36.877 31.0999C37.055 31.1853 37.2119 31.309 37.3364 31.4622C38.982 33.5157 38.6997 37.1449 38.6588 37.5837C39.6021 36.5375 39.8132 34.4987 39.692 32.9174C39.683 32.7986 39.674 32.6882 39.665 32.5849C39.6415 32.3041 39.6266 32.0632 39.6291 31.8507C39.6206 31.7883 39.6232 31.7248 39.6368 31.6633C39.6954 30.8534 40.1017 30.473 41.4973 29.7323Z" fill="#132324"/>
<path d="M39.5693 4.73288C39.4796 4.64319 39.358 4.59279 39.2312 4.59277C39.1044 4.59276 38.9827 4.64312 38.893 4.73279C38.8033 4.82245 38.7529 4.94407 38.7529 5.07089C38.7529 5.19772 38.8033 5.31935 38.8929 5.40904L40.3313 6.84744L41.7702 8.28629L43.2085 9.72459C43.2529 9.769 43.3056 9.80422 43.3636 9.82825C43.4216 9.85228 43.4838 9.86465 43.5466 9.86465C43.6094 9.86465 43.6716 9.85228 43.7296 9.82825C43.7876 9.80422 43.8403 9.769 43.8847 9.72459C43.9291 9.68019 43.9644 9.62748 43.9884 9.56946C44.0124 9.51144 44.0248 9.44926 44.0248 9.38647C44.0248 9.32367 44.0124 9.26149 43.9884 9.20347C43.9644 9.14546 43.9291 9.09274 43.8847 9.04834L39.5693 4.73288Z" fill="#132324"/>
<path d="M4.76818 32.5833C4.7592 32.6868 4.75022 32.7978 4.74123 32.9171C4.62039 34.4983 4.83107 36.5371 5.77443 37.5834C5.73293 37.1414 5.44839 33.4942 7.12748 31.4504C7.25365 31.2986 7.4119 31.1766 7.59083 31.0933C7.76976 31.01 7.96494 30.9673 8.16232 30.9684C8.35971 30.9695 8.5544 31.0143 8.73239 31.0997C8.91038 31.185 9.06726 31.3087 9.19173 31.4619C10.8374 33.5153 10.5553 37.1442 10.5142 37.5834C11.4576 36.5369 11.6685 34.4982 11.5474 32.9171C11.5384 32.7983 11.5295 32.688 11.5205 32.5847C11.3921 31.0567 11.5161 30.7069 13.3528 29.7318C14.2277 29.2674 14.5746 27.6149 14.066 26.3314C13.7741 25.5946 12.9699 24.4434 10.8605 25.0182C10.3936 25.1429 9.95084 25.3447 9.55048 25.6153C9.51226 25.6393 9.47333 25.6634 9.43368 25.6876C9.70118 25.7543 9.97967 25.7642 10.2513 25.7169C10.321 25.7026 10.3929 25.7023 10.4628 25.7159C10.5327 25.7296 10.5992 25.757 10.6584 25.7964C10.7177 25.8359 10.7685 25.8868 10.808 25.946C10.8475 26.0053 10.8749 26.0718 10.8885 26.1417C10.9022 26.2116 10.9018 26.2835 10.8875 26.3532C10.8733 26.423 10.8453 26.4892 10.8052 26.5481C10.7652 26.607 10.7139 26.6574 10.6543 26.6963C10.5947 26.7353 10.5279 26.762 10.4579 26.775C9.48318 26.9657 8.52554 26.5672 7.89007 26.251C7.75809 26.1854 7.58802 26.0872 7.39117 25.9736C6.8106 25.6382 5.83885 25.077 5.129 24.9829C4.42094 24.8886 2.71121 24.8666 2.13073 26.6828C1.74207 27.8988 2.11061 29.295 2.93537 29.7318C4.77268 30.7045 4.89657 31.0543 4.76818 32.5833Z" fill="#132324"/>
<path d="M41.579 34.5138C41.579 34.1751 41.5057 33.8404 41.3642 33.5326C41.2227 33.2248 41.0162 32.9513 40.7591 32.7308C40.7619 32.7654 40.7646 32.7992 40.7674 32.8352C40.8359 33.7314 40.9381 36.7812 39.3755 38.3957C39.2582 38.5088 39.1158 38.5925 38.96 38.6398C38.7898 38.7012 38.6065 38.7169 38.4283 38.6855C38.2501 38.6542 38.0832 38.5768 37.9442 38.461C37.8051 38.3452 37.6988 38.1951 37.6356 38.0256C37.5725 37.856 37.5548 37.6729 37.5843 37.4944C37.6081 37.2343 37.884 33.8693 36.4951 32.1363C36.471 32.1083 36.4411 32.0858 36.4075 32.0704C36.374 32.0549 36.3375 32.0469 36.3005 32.0467C36.2635 32.0466 36.227 32.0544 36.1933 32.0696C36.1596 32.0849 36.1296 32.1071 36.1053 32.135C34.6918 33.8556 34.9696 37.2321 34.9937 37.4942C35.0186 37.6433 35.0105 37.7959 34.97 37.9415C34.9295 38.087 34.8576 38.2219 34.7593 38.3367C34.661 38.4514 34.5387 38.5432 34.4011 38.6056C34.2635 38.6679 34.1138 38.6993 33.9628 38.6976C33.8456 38.6976 33.7292 38.6781 33.6184 38.6399C33.4624 38.5926 33.3199 38.5089 33.2026 38.3957C31.6399 36.7812 31.7421 33.7314 31.8107 32.8352C31.8197 32.7128 31.8296 32.5993 31.8385 32.4932C31.887 31.9163 31.9045 31.6548 31.8103 31.5027C31.6839 31.2984 31.2618 31.0481 30.5756 30.6852C29.952 30.3551 29.4916 29.7238 29.2459 28.9653C29.0019 29.7228 28.5516 30.3552 27.9303 30.6849C27.2436 31.0494 26.8214 31.3003 26.6951 31.5042C26.6009 31.6565 26.6184 31.918 26.6669 32.4952C26.6759 32.6007 26.6849 32.7138 26.6945 32.8356C26.763 33.7318 26.8652 36.7816 25.3026 38.3961C25.1854 38.5092 25.043 38.5928 24.8872 38.6402C24.717 38.7015 24.5337 38.7173 24.3555 38.686C24.1773 38.6546 24.0103 38.5772 23.8713 38.4614C23.7322 38.3456 23.6259 38.1955 23.5628 38.0259C23.4997 37.8563 23.482 37.6732 23.5115 37.4947C23.5354 37.2341 23.8111 33.8695 22.4223 32.1367C22.3982 32.1087 22.3683 32.0862 22.3347 32.0707C22.3012 32.0553 22.2646 32.0472 22.2277 32.0471C22.1907 32.047 22.1542 32.0548 22.1205 32.07C22.0868 32.0852 22.0567 32.1075 22.0324 32.1353C20.6191 33.8556 20.8968 37.2315 20.921 37.4945C20.9482 37.6725 20.9291 37.8546 20.8653 38.023C20.8015 38.1914 20.6953 38.3405 20.5569 38.4558C20.4185 38.5711 20.2527 38.6487 20.0755 38.681C19.8983 38.7133 19.7158 38.6993 19.5456 38.6403C19.3896 38.593 19.247 38.5092 19.1297 38.3959C17.5672 36.7818 17.6693 33.7318 17.7379 32.8356C17.7469 32.7133 17.7567 32.5997 17.7656 32.4936C17.8052 32.0242 17.824 31.7636 17.779 31.6008L13.7857 35.5941C13.6847 35.6952 13.5475 35.752 13.4046 35.752C13.2616 35.752 13.1245 35.6953 13.0234 35.5942C12.9223 35.4931 12.8655 35.356 12.8655 35.213C12.8655 35.07 12.9222 34.9329 13.0233 34.8318L16.9355 30.9197C16.8054 30.847 16.6615 30.7692 16.5027 30.6852C15.8774 30.3542 15.4161 29.7201 15.1713 28.959C14.9265 29.7227 14.474 30.3579 13.8578 30.6849C13.1711 31.0494 12.7489 31.3003 12.6226 31.5042C12.5284 31.6565 12.5459 31.918 12.5944 32.4952C12.6034 32.6007 12.6124 32.7138 12.6221 32.8355C12.6906 33.7318 12.7928 36.7818 11.2301 38.3961C11.1129 38.5092 10.9706 38.5929 10.8147 38.6402C10.6445 38.7015 10.4612 38.7173 10.283 38.686C10.1048 38.6546 9.93785 38.5772 9.7988 38.4614C9.65975 38.3456 9.55339 38.1955 9.49028 38.0259C9.42716 37.8563 9.40949 37.6732 9.43901 37.4947C9.46291 37.2341 9.73855 33.8695 8.34984 32.1367C8.3257 32.1087 8.29582 32.0862 8.26224 32.0707C8.22866 32.0553 8.19215 32.0472 8.15518 32.0471C8.11822 32.047 8.08165 32.0548 8.04797 32.07C8.01428 32.0852 7.98425 32.1075 7.95992 32.1353C7.20649 33.0525 6.94315 34.4548 6.85484 35.4698C6.79608 36.1431 6.79385 36.8202 6.84819 37.494C6.87317 37.643 6.86514 37.7957 6.82468 37.9414C6.78422 38.087 6.7123 38.2219 6.614 38.3367C6.5157 38.4515 6.39342 38.5434 6.25576 38.6058C6.11811 38.6682 5.96845 38.6996 5.81732 38.6979C5.70013 38.6979 5.58375 38.6784 5.47295 38.6402C5.31699 38.5928 5.17448 38.5091 5.05715 38.396C3.49477 36.7812 3.59719 33.7314 3.66547 32.8352C3.66844 32.7954 3.67149 32.7579 3.67446 32.72C3.41356 32.9404 3.20396 33.2151 3.0603 33.525C2.91665 33.8348 2.84241 34.1723 2.84277 34.5138V41.4072H41.579V34.5138Z" fill="#132324"/>
</svg>
