<svg width="43" height="42" viewBox="0 0 43 42" fill="none" xmlns="http://www.w3.org/2000/svg">
<path d="M26.7622 26.5983C26.8198 26.569 26.871 26.5287 26.913 26.4795C26.9551 26.4304 26.987 26.3735 27.007 26.312C27.027 26.2505 27.0347 26.1857 27.0296 26.1213C27.0246 26.0569 27.0069 25.994 26.9776 25.9364C26.9483 25.8788 26.9079 25.8276 26.8588 25.7856C26.8096 25.7436 26.7527 25.7116 26.6912 25.6916C26.6298 25.6716 26.565 25.6639 26.5005 25.669C26.4361 25.674 26.3733 25.6917 26.3157 25.721L24.4385 26.6763V27.7807L26.7622 26.5983Z" fill="#ffffff"/>
<path d="M16.9453 30.4898C16.8874 30.519 16.8359 30.5593 16.7937 30.6084C16.7515 30.6576 16.7194 30.7146 16.6992 30.7761C16.6791 30.8377 16.6713 30.9026 16.6763 30.9672C16.6813 31.0318 16.699 31.0947 16.7283 31.1524C16.7577 31.2102 16.7982 31.2615 16.8474 31.3036C16.8967 31.3457 16.9538 31.3776 17.0154 31.3975C17.0771 31.4175 17.142 31.425 17.2066 31.4198C17.2711 31.4146 17.334 31.3967 17.3917 31.3672L18.86 30.6199V29.5151L16.9453 30.4898Z" fill="#ffffff"/>
<path d="M16.9362 33.4377C16.8785 33.467 16.8272 33.5074 16.7852 33.5565C16.7432 33.6057 16.7112 33.6626 16.6912 33.7241C16.6712 33.7856 16.6635 33.8504 16.6685 33.9148C16.6735 33.9793 16.6912 34.0421 16.7205 34.0998C16.7498 34.1574 16.7902 34.2087 16.8393 34.2507C16.8885 34.2928 16.9454 34.3247 17.0069 34.3447C17.0683 34.3648 17.1332 34.3725 17.1976 34.3674C17.2621 34.3624 17.3249 34.3447 17.3826 34.3154L18.8604 33.563V32.4585L16.9362 33.4377Z" fill="#ffffff"/>
<path d="M26.7529 29.5465C26.8693 29.4873 26.9574 29.3843 26.9978 29.2601C27.0383 29.1359 27.0277 29.0008 26.9685 28.8844C26.9093 28.768 26.8063 28.6799 26.6821 28.6394C26.558 28.599 26.4228 28.6095 26.3064 28.6688L24.4385 29.6197V30.7242L26.7529 29.5465Z" fill="#ffffff"/>
<path d="M16.9267 36.3853C16.8689 36.4145 16.8174 36.4548 16.7752 36.5039C16.7329 36.5531 16.7008 36.61 16.6807 36.6716C16.6605 36.7332 16.6527 36.7981 16.6577 36.8627C16.6627 36.9273 16.6804 36.9902 16.7098 37.0479C16.7391 37.1057 16.7796 37.157 16.8289 37.1991C16.8782 37.2411 16.9352 37.2731 16.9969 37.293C17.0585 37.313 17.1235 37.3205 17.188 37.3153C17.2526 37.3101 17.3155 37.2922 17.3731 37.2627L18.8603 36.5059V35.4014L16.9267 36.3853Z" fill="#ffffff"/>
<path d="M26.7436 32.4943C26.8599 32.4351 26.9479 32.3321 26.9883 32.208C27.0287 32.0839 27.0182 31.9488 26.959 31.8324C26.8998 31.7161 26.7968 31.628 26.6726 31.5876C26.5485 31.5472 26.4134 31.5578 26.2971 31.617L24.4385 32.5628V33.6674L26.7436 32.4943Z" fill="#ffffff"/>
<path d="M24.4385 32.5628V30.7241L18.8604 33.5626V35.4012L24.4385 32.5628Z" fill="#ffffff"/>
<path d="M18.8604 37.5554L21.6156 38.9484L24.4385 37.5524V33.6675L18.8604 36.5059V37.5554Z" fill="#ffffff"/>
<path d="M9.76033 15.0995C13.5843 17.124 13.6978 17.6 13.4358 20.7164C13.43 20.7856 13.4241 20.8562 13.418 20.9285H29.7408C29.7349 20.8574 29.7291 20.7878 29.7234 20.7198C29.4617 17.6048 29.5752 17.1289 33.3984 15.0998C34.4677 14.5322 35.2899 13.2782 35.6542 11.6592C36.0212 10.0288 35.8897 8.23029 35.2933 6.72469C34.0513 3.58847 31.1705 2.38097 27.3893 3.41153C25.9242 3.81094 25.1784 4.27335 24.3149 4.80885C23.793 5.14344 23.2533 5.44943 22.6982 5.72547C24.142 6.32676 25.3218 6.51297 26.3616 6.3097C26.4897 6.28468 26.6225 6.31158 26.7308 6.38448C26.8391 6.45739 26.914 6.57032 26.939 6.69844C26.964 6.82656 26.9371 6.95938 26.8642 7.06766C26.7913 7.17595 26.6784 7.25084 26.5502 7.27586C25.6199 7.45731 24.0664 7.54123 21.3287 6.17976C21.0571 6.04465 20.6904 5.83293 20.2659 5.58774C18.8545 4.77259 16.7214 3.54081 15.0182 3.3149C9.8066 2.62403 8.12758 6.04227 7.64746 7.5441C7.1921 8.99727 7.15845 10.5498 7.55041 12.0214C7.94818 13.4625 8.73314 14.5557 9.76033 15.0995ZM19.7304 17.9329C19.9612 17.6564 20.2503 17.4343 20.5769 17.2826C20.9035 17.1309 21.2597 17.0532 21.6198 17.0552C21.98 17.0571 22.3352 17.1387 22.6602 17.294C22.9852 17.4492 23.2718 17.6744 23.4996 17.9534C23.5779 18.0555 23.6131 18.1843 23.5976 18.3121C23.582 18.4399 23.5171 18.5565 23.4166 18.637C23.3162 18.7174 23.1882 18.7553 23.0601 18.7426C22.932 18.7298 22.814 18.6673 22.7314 18.5686C22.5953 18.4039 22.4246 18.2712 22.2315 18.1797C22.0384 18.0882 21.8276 18.0402 21.6139 18.0391C21.4002 18.0381 21.1889 18.0839 20.9949 18.1734C20.8009 18.263 20.6289 18.394 20.4911 18.5573C20.4501 18.6072 20.3996 18.6486 20.3426 18.6791C20.2856 18.7095 20.2231 18.7284 20.1588 18.7347C20.0944 18.741 20.0295 18.7346 19.9677 18.7158C19.9058 18.697 19.8483 18.6662 19.7983 18.6252C19.7484 18.5842 19.707 18.5337 19.6766 18.4767C19.6461 18.4197 19.6272 18.3572 19.6209 18.2929C19.6146 18.2286 19.621 18.1636 19.6398 18.1018C19.6586 18.0399 19.6894 17.9824 19.7304 17.9325V17.9329Z" fill="#ffffff"/>
<path d="M24.4385 27.7812L18.8604 30.6198V32.4584L24.4385 29.62V27.7812Z" fill="#ffffff"/>
<path d="M24.4385 24.5073H18.8604V29.5148L24.4385 26.6763V24.5073Z" fill="#ffffff"/>
<path d="M17.2197 21.9126H26.0791V23.5231H17.2197V21.9126Z" fill="#ffffff"/>
</svg>
