<svg width="47" height="46" viewBox="0 0 47 46" fill="none" xmlns="http://www.w3.org/2000/svg">
<path d="M12.7577 13.4856L13.52 12.7233L5.98574 5.18915C5.88464 5.08805 5.74752 5.03125 5.60454 5.03125C5.46156 5.03125 5.32443 5.08805 5.22333 5.18915C5.12223 5.29025 5.06543 5.42738 5.06543 5.57036C5.06543 5.71334 5.12223 5.85046 5.22333 5.95157L12.7577 13.4856Z" fill="#132324"/>
<path d="M12.8516 14.1514L14.1819 12.821L15.5122 14.1513L14.1818 15.4817L12.8516 14.1514Z" fill="#132324"/>
<path d="M14.2471 16.9414L16.9724 14.216L17.6052 14.8488L14.8799 17.5742L14.2471 16.9414Z" fill="#132324"/>
<path d="M37.4476 38.8097L36.0527 40.205C35.9706 40.2893 35.925 40.4026 35.9258 40.5203C35.9266 40.638 35.9737 40.7506 36.0569 40.8338C36.1402 40.917 36.2528 40.9641 36.3705 40.9649C36.4882 40.9656 36.6014 40.92 36.6857 40.8379L40.8714 36.6521C40.9553 36.5682 41.0024 36.4544 41.0024 36.3357C41.0024 36.217 40.9553 36.1032 40.8713 36.0192C40.7874 35.9353 40.6736 35.8882 40.5549 35.8882C40.4362 35.8882 40.3223 35.9354 40.2384 36.0193L37.8466 38.411L37.4481 38.8097H37.4476Z" fill="#132324"/>
<path d="M34.8301 35.4284L37.0675 37.6658L37.2369 37.4965L37.7004 37.0329L35.463 34.7954L34.8301 35.4284Z" fill="#132324"/>
<path d="M31.9376 30.5077C31.8365 30.6087 31.6994 30.6655 31.5564 30.6655C31.4135 30.6655 31.2764 30.6087 31.1753 30.5076C31.0742 30.4065 31.0174 30.2694 31.0174 30.1264C31.0174 29.9834 31.0742 29.8463 31.1753 29.7452L32.887 28.0336L31.9517 27.0984L31.2869 27.7633C31.1855 27.863 31.0489 27.9187 30.9067 27.9181C30.7645 27.9176 30.6282 27.8608 30.5277 27.7603C30.4271 27.6597 30.3703 27.5235 30.3697 27.3813C30.3691 27.2391 30.4248 27.1024 30.5245 27.0011L31.1899 26.3362L30.2546 25.4009L28.5429 27.1126C28.4931 27.1638 28.4336 27.2046 28.3679 27.2326C28.3022 27.2606 28.2317 27.2753 28.1602 27.2757C28.0888 27.2762 28.0181 27.2625 27.952 27.2354C27.8859 27.2083 27.8259 27.1684 27.7754 27.1179C27.7249 27.0674 27.685 27.0074 27.6578 26.9413C27.6307 26.8753 27.617 26.8045 27.6175 26.7331C27.618 26.6617 27.6327 26.5911 27.6606 26.5254C27.6886 26.4597 27.7294 26.4002 27.7806 26.3504L29.4923 24.6386L28.5563 23.7033L27.8914 24.3682C27.8415 24.4189 27.7821 24.4593 27.7165 24.4869C27.6509 24.5145 27.5805 24.5289 27.5094 24.5292C27.4382 24.5295 27.3677 24.5157 27.3019 24.4886C27.2361 24.4615 27.1763 24.4216 27.126 24.3713C27.0757 24.321 27.0358 24.2612 27.0087 24.1954C26.9816 24.1296 26.9678 24.0591 26.9681 23.9879C26.9684 23.9168 26.9828 23.8464 27.0104 23.7808C27.038 23.7152 27.0784 23.6558 27.1291 23.6059L27.794 22.941L26.8588 22.0057L25.1471 23.7174C25.0457 23.8172 24.909 23.8728 24.7668 23.8722C24.6246 23.8717 24.4884 23.8149 24.3878 23.7143C24.2873 23.6138 24.2305 23.4776 24.23 23.3354C24.2294 23.1932 24.285 23.0565 24.3847 22.9551L26.0964 21.2434L25.1613 20.3082L24.496 20.9735C24.3949 21.0746 24.2577 21.1314 24.1148 21.1314C23.9718 21.1314 23.8347 21.0746 23.7336 20.9735C23.6325 20.8724 23.5757 20.7353 23.5757 20.5923C23.5757 20.4493 23.6325 20.3122 23.7336 20.2111L24.3985 19.5463L23.4636 18.6107L21.7519 20.3225C21.7018 20.3726 21.6424 20.4123 21.577 20.4394C21.5116 20.4665 21.4415 20.4804 21.3707 20.4804C21.2999 20.4804 21.2298 20.4664 21.1644 20.4393C21.099 20.4122 21.0396 20.3725 20.9895 20.3225C20.9394 20.2724 20.8997 20.213 20.8727 20.1476C20.8456 20.0822 20.8316 20.0121 20.8316 19.9413C20.8316 19.8705 20.8456 19.8004 20.8727 19.735C20.8998 19.6696 20.9395 19.6102 20.9895 19.5601L22.7017 17.8483L19.6719 14.8186C19.6045 14.7512 19.5131 14.7134 19.4178 14.7134C19.3225 14.7134 19.2311 14.7512 19.1637 14.8186L14.8533 19.1289C14.8199 19.1623 14.7935 19.2019 14.7754 19.2455C14.7573 19.2891 14.748 19.3359 14.748 19.3831C14.748 19.4303 14.7573 19.477 14.7754 19.5206C14.7935 19.5642 14.8199 19.6038 14.8533 19.6372L31.7205 36.5048C31.788 36.5721 31.8793 36.6099 31.9746 36.6099C32.0699 36.6099 32.1613 36.5721 32.2287 36.5048L36.5391 32.1945C36.6064 32.127 36.6442 32.0356 36.6442 31.9403C36.6442 31.845 36.6064 31.7536 36.5391 31.6861L33.6489 28.796L31.9376 30.5077Z" fill="#132324"/>
</svg>
